<svg version="1.1" id="Layer_1" xmlns="http://www.w3.org/2000/svg" xmlns:xlink="http://www.w3.org/1999/xlink" x="0px" y="0px"
	 width="100%" viewBox="0 0 500 500" enable-background="new 0 0 500 500" xml:space="preserve">
<path fill="#00C2CB" opacity="1.000000" stroke="none" 
	d="
M368.000000,501.000000 
	C245.333359,501.000000 123.166725,501.000000 1.000066,501.000000 
	C1.000044,334.333405 1.000044,167.666809 1.000022,1.000155 
	C167.666550,1.000103 334.333099,1.000103 500.999756,1.000052 
	C500.999817,167.666519 500.999817,334.333038 500.999908,500.999756 
	C456.833344,501.000000 412.666656,501.000000 368.000000,501.000000 
M138.416183,293.992737 
	C158.745850,286.792053 170.238708,270.722046 170.028229,249.790817 
	C169.809326,228.022583 153.927475,210.306732 131.176956,206.453079 
	C111.167961,203.063797 89.672829,215.868225 82.738220,235.307495 
	C80.546898,241.450287 81.317955,242.532394 87.928986,242.570831 
	C89.927391,242.582458 91.939056,242.425507 93.921844,242.602005 
	C99.329391,243.083328 103.148956,241.977097 106.759796,236.794952 
	C114.715195,225.377731 130.717224,224.477432 141.026520,233.826950 
	C150.889542,242.771744 151.194702,258.342590 141.691086,267.739868 
	C132.038223,277.284729 115.342361,277.030273 107.292961,265.934235 
	C103.032974,260.061859 98.605057,258.716034 92.347389,259.402405 
	C90.866318,259.564850 89.352272,259.419159 87.853485,259.428955 
	C81.209259,259.472321 80.578987,260.397919 82.868057,266.734589 
	C90.797234,288.684387 113.774345,300.190826 138.416183,293.992737 
M280.392761,220.499069 
	C279.794159,217.332748 281.684082,216.881897 284.185120,216.902710 
	C290.101074,216.951981 296.017731,216.918549 302.400330,216.918549 
	C302.276611,214.574280 302.194244,213.013809 302.095520,211.143524 
	C294.660889,211.143524 287.690002,211.028168 280.725586,211.190536 
	C277.060150,211.276016 274.789764,213.357803 274.708252,217.157562 
	C274.594147,222.478333 274.258545,227.855164 274.896881,233.101028 
	C275.148621,235.170151 277.644867,238.468643 279.326752,238.602753 
	C286.852478,239.202866 294.453094,238.863831 301.947845,238.863831 
	C302.487366,233.406769 302.487885,233.366074 298.026947,233.307800 
	C293.701294,233.251312 289.351562,233.544342 285.059540,233.158920 
	C283.408813,233.010681 281.888214,231.413269 280.308319,230.476151 
	C281.956268,229.641876 283.569824,228.180878 285.258484,228.088242 
	C290.820648,227.783081 296.410004,227.973343 302.453735,227.973343 
	C302.284149,225.614761 302.172150,224.057190 302.069397,222.627884 
	C294.633545,222.199783 287.715454,221.801483 280.392761,220.499069 
M405.080139,281.296448 
	C400.584747,281.292267 396.071259,281.514069 391.604065,281.157043 
	C390.110077,281.037628 388.734222,279.439667 387.304382,278.517548 
	C388.774567,277.670135 390.211792,276.167603 391.720825,276.091644 
	C397.458008,275.802979 403.218353,275.975311 409.433746,275.975311 
	C409.279755,273.636566 409.177216,272.079224 409.051819,270.174438 
	C402.932831,270.174438 397.279907,270.356506 391.653290,270.052246 
	C390.161713,269.971588 388.751038,268.395142 387.303223,267.505493 
	C388.764740,266.640717 390.192017,265.106934 391.693909,265.029968 
	C397.430664,264.736084 403.191406,264.911224 409.411407,264.911224 
	C409.279053,262.561005 409.191132,260.999664 409.086731,259.145721 
	C401.643707,259.145721 394.666992,259.035675 387.696289,259.193024 
	C384.306458,259.269562 381.888275,261.094330 381.776398,264.696533 
	C381.600891,270.348450 381.586273,276.015625 381.797791,281.665344 
	C381.921021,284.957458 384.081085,286.878510 387.347656,286.938995 
	C394.476471,287.071014 401.609375,286.979828 408.851105,286.979828 
	C409.598938,283.898193 410.435333,281.207184 405.080139,281.296448 
M320.606934,277.423523 
	C320.606934,280.509644 320.606934,283.595764 320.606934,287.003693 
	C322.851990,286.870789 324.260162,286.787415 326.121643,286.677185 
	C326.121643,283.071381 326.121643,279.796265 326.121643,275.318878 
	C328.439850,276.449280 330.095978,276.922333 331.314911,277.926270 
	C333.361237,279.611664 335.319489,281.482666 336.973175,283.549011 
	C340.024323,287.361603 343.757202,287.674988 347.972656,286.538116 
	C348.969757,283.138153 348.485535,281.477692 344.554932,281.077881 
	C342.365662,280.855164 340.382141,278.609100 338.305878,277.274902 
	C340.159424,276.109161 341.449646,276.052765 342.728180,275.898956 
	C347.805176,275.288177 348.456726,271.683044 348.473145,267.528259 
	C348.489716,263.329498 347.712219,259.485931 342.669403,259.261780 
	C335.555481,258.945618 328.416962,259.181763 320.607971,259.181763 
	C320.607971,265.206451 320.607971,270.827362 320.606934,277.423523 
M270.832672,222.439804 
	C265.185791,222.348358 259.529602,222.406479 253.898682,222.057663 
	C252.533295,221.973083 251.251007,220.546951 249.930511,219.737717 
	C251.276733,218.798019 252.583755,217.121323 253.976013,217.047287 
	C259.741852,216.740646 265.533478,216.918594 271.627960,216.918594 
	C271.627960,214.795410 271.627960,213.248886 271.627960,211.197144 
	C264.104401,211.197144 256.795227,210.807266 249.578796,211.453339 
	C247.614288,211.629227 244.633835,214.757263 244.365631,216.822144 
	C243.643784,222.379318 243.747696,228.136459 244.361115,233.722260 
	C244.565674,235.584915 247.210129,238.525940 248.905060,238.646759 
	C256.456482,239.184982 264.067963,238.880417 271.688782,238.880417 
	C271.688782,236.840820 271.688782,235.397141 271.688782,233.275635 
	C265.661682,233.275635 259.879395,233.195435 254.100632,233.303665 
	C250.209946,233.376526 249.040131,231.899338 250.741318,227.812927 
	C257.709412,227.812927 264.628632,227.812927 272.013184,227.812927 
	C271.822327,225.811325 271.685638,224.377579 270.832672,222.439804 
M356.916626,278.545319 
	C358.345276,277.690613 359.740814,276.171539 361.208374,276.098480 
	C366.964508,275.811859 372.743317,275.981232 378.945282,275.981232 
	C378.823669,273.732910 378.740112,272.188721 378.631012,270.171936 
	C373.549133,270.171936 368.892151,270.487488 364.308105,270.045807 
	C361.819580,269.806061 357.292114,272.354248 357.136261,267.644897 
	C356.968964,262.588165 361.644623,265.281036 364.059174,265.048370 
	C368.793823,264.592102 373.603424,264.914246 378.625366,264.914246 
	C378.625366,262.746674 378.625366,261.200378 378.625366,259.205750 
	C371.036377,259.205750 363.752563,259.014771 356.486328,259.289124 
	C353.032898,259.419495 351.173340,261.909943 351.101044,265.358124 
	C350.993103,270.509583 350.589874,275.731506 351.290588,280.787842 
	C351.596619,282.996033 354.185120,286.460297 355.976044,286.616638 
	C363.494965,287.272858 371.104218,286.893738 378.969269,286.893738 
	C378.856873,284.778839 378.780548,283.342651 378.670868,281.279022 
	C372.776123,281.279022 367.155945,281.406891 361.548553,281.195770 
	C360.004639,281.137634 358.498871,280.067505 356.916626,278.545319 
M265.053101,267.512787 
	C266.464355,266.647034 267.841797,265.106934 269.292786,265.034210 
	C275.051819,264.745605 280.833832,264.915497 286.858521,264.915497 
	C286.858521,262.776794 286.858521,261.196472 286.858521,259.147705 
	C279.479889,259.147705 272.362335,258.929871 265.266235,259.225708 
	C260.674835,259.417114 259.084290,262.274109 259.225494,268.328064 
	C259.328430,272.740204 260.890076,275.821838 265.815033,275.938873 
	C269.806244,276.033722 273.814636,275.796234 277.786194,276.094879 
	C279.027771,276.188263 280.174194,277.546967 281.364197,278.326447 
	C280.178009,279.305176 279.047821,281.035156 277.795685,281.128448 
	C273.162048,281.473663 268.481567,281.435669 263.831329,281.240204 
	C259.611694,281.062897 258.431427,282.702789 259.981812,287.023865 
	C266.775452,287.023865 273.563904,287.118958 280.348267,286.992584 
	C285.419556,286.898132 287.068848,284.902008 287.163513,279.312805 
	C287.273590,272.817017 285.750610,270.551147 280.640930,270.248291 
	C276.826813,270.022247 272.980194,270.332977 269.168182,270.089478 
	C267.781555,270.000946 266.453186,269.000366 265.053101,267.512787 
M190.631897,233.281784 
	C182.754715,233.294769 182.754715,233.294769 183.778870,239.028290 
	C190.469162,239.028290 197.264404,239.119598 204.055847,238.998154 
	C209.108963,238.907806 210.874390,236.824463 210.984451,231.343857 
	C211.112762,224.954666 209.484909,222.547821 204.419891,222.247070 
	C200.600708,222.020294 196.740509,222.386719 192.936386,222.055206 
	C191.545807,221.934036 189.356689,220.778549 189.104141,219.719818 
	C188.364670,216.619904 190.998489,216.938446 192.959000,216.929169 
	C198.750580,216.901749 204.542358,216.919357 210.637253,216.919357 
	C210.637253,214.780350 210.637253,213.231949 210.637253,211.098953 
	C203.561951,211.098953 196.767700,210.967896 189.981216,211.141037 
	C184.693130,211.275955 182.983459,213.610565 183.040787,219.870209 
	C183.094009,225.682709 184.861023,227.781891 190.108322,227.946518 
	C194.103210,228.071854 198.115692,227.827637 202.095917,228.101990 
	C203.144867,228.174301 204.103333,229.559296 205.103348,230.341507 
	C204.097763,231.311249 203.169373,232.999786 202.072296,233.117584 
	C198.612396,233.489120 195.089233,233.271683 190.631897,233.281784 
M307.814178,239.012955 
	C313.790588,239.017960 319.768066,239.096085 325.743042,239.005905 
	C330.956329,238.927216 332.850464,236.987442 332.960022,231.694595 
	C333.052765,227.214218 332.966705,222.730316 332.980560,218.248047 
	C332.995056,213.551010 330.642395,211.153702 325.975128,211.111969 
	C320.331146,211.061508 314.682892,211.213333 309.043457,211.044861 
	C306.045044,210.955292 304.916412,211.985275 304.992279,215.046326 
	C305.160828,221.848663 304.960632,228.660172 305.130524,235.462448 
	C305.159943,236.639816 306.269409,237.790192 307.814178,239.012955 
M205.849426,286.939423 
	C209.325607,286.241211 210.918488,283.984283 210.953339,280.574463 
	C211.004272,275.590485 211.032486,270.604431 210.943573,265.621490 
	C210.867889,261.380280 208.484726,259.221436 204.337509,259.133545 
	C199.521271,259.031525 194.700394,259.046234 189.883240,259.120758 
	C185.474228,259.188934 183.109970,261.484070 183.062073,265.940979 
	C183.012054,270.592743 182.954834,275.247803 183.072220,279.897064 
	C183.202850,285.071289 185.179810,286.935577 190.507263,287.014221 
	C195.324509,287.085358 200.143814,287.016632 205.849426,286.939423 
M417.839935,274.925171 
	C417.952271,273.450592 418.064575,271.976013 418.296661,268.929382 
	C424.306152,275.117676 429.104523,280.182068 434.077057,285.069214 
	C435.005280,285.981506 436.694580,286.684174 437.914368,286.532440 
	C438.700897,286.434662 439.828278,284.613525 439.850281,283.545105 
	C440.013977,275.603882 439.939117,267.657715 439.939117,259.834259 
	C435.405640,258.156189 433.970367,259.679321 434.165466,263.738922 
	C434.352844,267.637848 434.205963,271.552795 434.205963,276.946259 
	C431.778076,274.682556 430.476410,273.527252 429.240295,272.305603 
	C425.334991,268.445923 421.560303,264.446381 417.527008,260.726501 
	C414.804962,258.216003 412.270508,259.144073 412.158173,262.786774 
	C411.913574,270.717224 412.082642,278.660400 412.082642,287.021332 
	C414.301208,286.884430 415.850922,286.788818 417.839478,286.666107 
	C417.839478,282.751129 417.839478,279.284027 417.839935,274.925171 
M213.625916,273.521942 
	C213.625916,277.825684 213.625916,282.129456 213.625916,286.615082 
	C215.640518,286.615082 217.170639,286.615082 219.416473,286.615082 
	C219.416473,280.948822 219.416473,275.630188 219.416473,269.227325 
	C221.666168,271.354553 223.000977,272.567322 224.280548,273.835846 
	C228.178146,277.699738 231.991455,281.651154 235.962402,285.437622 
	C238.381516,287.744385 241.007874,287.601807 241.188568,283.942047 
	C241.587769,275.856506 241.312729,267.737701 241.312729,259.427734 
	C239.356689,259.427734 237.943222,259.427734 235.779572,259.427734 
	C235.779572,265.152283 235.779572,270.634308 235.779572,276.116333 
	C235.318222,276.317413 234.856857,276.518524 234.395508,276.719604 
	C229.351425,271.448761 224.372040,266.112854 219.199890,260.970795 
	C218.332520,260.108490 216.502213,259.570465 215.358170,259.854553 
	C214.580399,260.047699 213.839249,261.907898 213.752670,263.072479 
	C213.518967,266.216064 213.644135,269.386353 213.625916,273.521942 
M215.162155,211.223999 
	C214.652618,212.150223 213.706757,213.074234 213.702026,214.003021 
	C213.661652,221.964249 213.786606,229.926407 213.892990,237.887878 
	C213.896454,238.146301 214.230072,238.400284 214.610382,238.942154 
	C215.848602,238.870361 217.253845,238.788879 218.888748,238.694077 
	C219.083649,234.993896 219.261368,231.619934 219.454300,227.957413 
	C224.717911,227.957413 229.357513,228.031342 233.993759,227.938507 
	C239.668045,227.824905 241.391113,225.876068 241.448227,219.793732 
	C241.508652,213.360031 239.776581,211.247665 233.975937,211.137772 
	C228.000687,211.024536 222.021347,211.127335 215.162155,211.223999 
M310.379730,287.029968 
	C312.658081,287.029968 314.936432,287.029968 317.065674,287.029968 
	C318.555481,282.817871 317.536011,281.025726 313.507416,281.270508 
	C311.351990,281.401489 309.181915,281.290253 307.018433,281.290192 
	C294.594086,281.289795 294.670380,281.294952 295.497009,268.624451 
	C295.678131,265.848053 296.658447,264.813446 299.406403,264.882355 
	C304.395660,265.007507 309.403656,265.096649 314.373688,264.758148 
	C315.561310,264.677216 316.630188,262.853790 317.753662,261.831818 
	C316.684479,260.923004 315.645294,259.273041 314.541107,259.228302 
	C308.394073,258.979156 302.227325,258.988770 296.075256,259.173462 
	C292.170227,259.290741 289.952881,261.484741 289.935913,265.546356 
	C289.915039,270.538788 289.906677,275.531433 289.931671,280.523834 
	C289.953125,284.811615 292.201843,286.957001 296.434845,287.006439 
	C300.761200,287.056946 305.088562,287.025513 310.379730,287.029968 
M118.923210,242.293961 
	C114.384071,246.620224 113.243050,250.996445 115.447289,255.625351 
	C117.401558,259.729340 122.159683,262.311584 126.548630,261.567810 
	C131.071060,260.801453 134.085831,258.240936 135.381058,253.797592 
	C136.636444,249.490997 135.316879,245.827881 132.068405,243.003372 
	C128.266708,239.697861 123.980507,239.467178 118.923210,242.293961 
z"/>
<path fill="#535656" opacity="1.000000" stroke="none" 
	d="
M138.019318,294.073547 
	C113.774345,300.190826 90.797234,288.684387 82.868057,266.734589 
	C80.578987,260.397919 81.209259,259.472321 87.853485,259.428955 
	C89.352272,259.419159 90.866318,259.564850 92.347389,259.402405 
	C98.605057,258.716034 103.032974,260.061859 107.292961,265.934235 
	C115.342361,277.030273 132.038223,277.284729 141.691086,267.739868 
	C151.194702,258.342590 150.889542,242.771744 141.026520,233.826950 
	C130.717224,224.477432 114.715195,225.377731 106.759796,236.794952 
	C103.148956,241.977097 99.329391,243.083328 93.921844,242.602005 
	C91.939056,242.425507 89.927391,242.582458 87.928986,242.570831 
	C81.317955,242.532394 80.546898,241.450287 82.738220,235.307495 
	C89.672829,215.868225 111.167961,203.063797 131.176956,206.453079 
	C153.927475,210.306732 169.809326,228.022583 170.028229,249.790817 
	C170.238708,270.722046 158.745850,286.792053 138.019318,294.073547 
z"/>
<path fill="#4F5A5B" opacity="1.000000" stroke="none" 
	d="
M280.595062,220.951126 
	C287.715454,221.801483 294.633545,222.199783 302.069397,222.627884 
	C302.172150,224.057190 302.284149,225.614761 302.453735,227.973343 
	C296.410004,227.973343 290.820648,227.783081 285.258484,228.088242 
	C283.569824,228.180878 281.956268,229.641876 280.308319,230.476151 
	C281.888214,231.413269 283.408813,233.010681 285.059540,233.158920 
	C289.351562,233.544342 293.701294,233.251312 298.026947,233.307800 
	C302.487885,233.366074 302.487366,233.406769 301.947845,238.863831 
	C294.453094,238.863831 286.852478,239.202866 279.326752,238.602753 
	C277.644867,238.468643 275.148621,235.170151 274.896881,233.101028 
	C274.258545,227.855164 274.594147,222.478333 274.708252,217.157562 
	C274.789764,213.357803 277.060150,211.276016 280.725586,211.190536 
	C287.690002,211.028168 294.660889,211.143524 302.095520,211.143524 
	C302.194244,213.013809 302.276611,214.574280 302.400330,216.918549 
	C296.017731,216.918549 290.101074,216.951981 284.185120,216.902710 
	C281.684082,216.881897 279.794159,217.332748 280.595062,220.951126 
z"/>
<path fill="#4F5A5B" opacity="1.000000" stroke="none" 
	d="
M405.517822,281.299377 
	C410.435333,281.207184 409.598938,283.898193 408.851105,286.979828 
	C401.609375,286.979828 394.476471,287.071014 387.347656,286.938995 
	C384.081085,286.878510 381.921021,284.957458 381.797791,281.665344 
	C381.586273,276.015625 381.600891,270.348450 381.776398,264.696533 
	C381.888275,261.094330 384.306458,259.269562 387.696289,259.193024 
	C394.666992,259.035675 401.643707,259.145721 409.086731,259.145721 
	C409.191132,260.999664 409.279053,262.561005 409.411407,264.911224 
	C403.191406,264.911224 397.430664,264.736084 391.693909,265.029968 
	C390.192017,265.106934 388.764740,266.640717 387.303223,267.505493 
	C388.751038,268.395142 390.161713,269.971588 391.653290,270.052246 
	C397.279907,270.356506 402.932831,270.174438 409.051819,270.174438 
	C409.177216,272.079224 409.279755,273.636566 409.433746,275.975311 
	C403.218353,275.975311 397.458008,275.802979 391.720825,276.091644 
	C390.211792,276.167603 388.774567,277.670135 387.304382,278.517548 
	C388.734222,279.439667 390.110077,281.037628 391.604065,281.157043 
	C396.071259,281.514069 400.584747,281.292267 405.517822,281.299377 
z"/>
<path fill="#515859" opacity="1.000000" stroke="none" 
	d="
M320.607452,276.935913 
	C320.607971,270.827362 320.607971,265.206451 320.607971,259.181763 
	C328.416962,259.181763 335.555481,258.945618 342.669403,259.261780 
	C347.712219,259.485931 348.489716,263.329498 348.473145,267.528259 
	C348.456726,271.683044 347.805176,275.288177 342.728180,275.898956 
	C341.449646,276.052765 340.159424,276.109161 338.305878,277.274902 
	C340.382141,278.609100 342.365662,280.855164 344.554932,281.077881 
	C348.485535,281.477692 348.969757,283.138153 347.972656,286.538116 
	C343.757202,287.674988 340.024323,287.361603 336.973175,283.549011 
	C335.319489,281.482666 333.361237,279.611664 331.314911,277.926270 
	C330.095978,276.922333 328.439850,276.449280 326.121643,275.318878 
	C326.121643,279.796265 326.121643,283.071381 326.121643,286.677185 
	C324.260162,286.787415 322.851990,286.870789 320.606934,287.003693 
	C320.606934,283.595764 320.606934,280.509644 320.607452,276.935913 
M326.228821,266.627533 
	C326.810120,267.784058 327.331512,269.901550 327.982300,269.942078 
	C332.403961,270.217560 336.857758,270.148865 341.286926,269.917542 
	C341.850983,269.888092 342.766663,268.250610 342.727600,267.394196 
	C342.689636,266.562561 341.622559,265.074188 341.024780,265.082825 
	C336.165283,265.152924 331.309875,265.507080 326.228821,266.627533 
z"/>
<path fill="#4E5C5C" opacity="1.000000" stroke="none" 
	d="
M271.190796,222.691833 
	C271.685638,224.377579 271.822327,225.811325 272.013184,227.812927 
	C264.628632,227.812927 257.709412,227.812927 250.741318,227.812927 
	C249.040131,231.899338 250.209946,233.376526 254.100632,233.303665 
	C259.879395,233.195435 265.661682,233.275635 271.688782,233.275635 
	C271.688782,235.397141 271.688782,236.840820 271.688782,238.880417 
	C264.067963,238.880417 256.456482,239.184982 248.905060,238.646759 
	C247.210129,238.525940 244.565674,235.584915 244.361115,233.722260 
	C243.747696,228.136459 243.643784,222.379318 244.365631,216.822144 
	C244.633835,214.757263 247.614288,211.629227 249.578796,211.453339 
	C256.795227,210.807266 264.104401,211.197144 271.627960,211.197144 
	C271.627960,213.248886 271.627960,214.795410 271.627960,216.918594 
	C265.533478,216.918594 259.741852,216.740646 253.976013,217.047287 
	C252.583755,217.121323 251.276733,218.798019 249.930511,219.737701 
	C251.251007,220.546951 252.533295,221.973083 253.898682,222.057663 
	C259.529602,222.406479 265.185791,222.348358 271.190796,222.691833 
z"/>
<path fill="#4E5C5C" opacity="1.000000" stroke="none" 
	d="
M356.946106,279.003540 
	C358.498871,280.067505 360.004639,281.137634 361.548553,281.195770 
	C367.155945,281.406891 372.776123,281.279022 378.670868,281.279022 
	C378.780548,283.342651 378.856873,284.778839 378.969269,286.893738 
	C371.104218,286.893738 363.494965,287.272858 355.976044,286.616638 
	C354.185120,286.460297 351.596619,282.996033 351.290588,280.787842 
	C350.589874,275.731506 350.993103,270.509583 351.101044,265.358124 
	C351.173340,261.909943 353.032898,259.419495 356.486328,259.289124 
	C363.752563,259.014771 371.036377,259.205750 378.625366,259.205750 
	C378.625366,261.200378 378.625366,262.746674 378.625366,264.914246 
	C373.603424,264.914246 368.793823,264.592102 364.059174,265.048370 
	C361.644623,265.281036 356.968964,262.588165 357.136261,267.644897 
	C357.292114,272.354248 361.819580,269.806061 364.308105,270.045807 
	C368.892151,270.487488 373.549133,270.171936 378.631012,270.171936 
	C378.740112,272.188721 378.823669,273.732910 378.945282,275.981232 
	C372.743317,275.981232 366.964508,275.811859 361.208374,276.098480 
	C359.740814,276.171539 358.345276,277.690613 356.946106,279.003540 
z"/>
<path fill="#4E5B5C" opacity="1.000000" stroke="none" 
	d="
M265.075653,267.964355 
	C266.453186,269.000366 267.781555,270.000946 269.168182,270.089478 
	C272.980194,270.332977 276.826813,270.022247 280.640930,270.248291 
	C285.750610,270.551147 287.273590,272.817017 287.163513,279.312805 
	C287.068848,284.902008 285.419556,286.898132 280.348267,286.992584 
	C273.563904,287.118958 266.775452,287.023865 259.981812,287.023865 
	C258.431427,282.702789 259.611694,281.062897 263.831329,281.240204 
	C268.481567,281.435669 273.162048,281.473663 277.795685,281.128448 
	C279.047821,281.035156 280.178009,279.305176 281.364197,278.326447 
	C280.174194,277.546967 279.027771,276.188263 277.786194,276.094879 
	C273.814636,275.796234 269.806244,276.033722 265.815033,275.938873 
	C260.890076,275.821838 259.328430,272.740204 259.225494,268.328064 
	C259.084290,262.274109 260.674835,259.417114 265.266235,259.225708 
	C272.362335,258.929871 279.479889,259.147705 286.858521,259.147705 
	C286.858521,261.196472 286.858521,262.776794 286.858521,264.915497 
	C280.833832,264.915497 275.051819,264.745605 269.292786,265.034210 
	C267.841797,265.106934 266.464355,266.647034 265.075653,267.964355 
z"/>
<path fill="#4E5C5D" opacity="1.000000" stroke="none" 
	d="
M191.111237,233.281982 
	C195.089233,233.271683 198.612396,233.489120 202.072296,233.117584 
	C203.169373,232.999786 204.097763,231.311249 205.103348,230.341507 
	C204.103333,229.559296 203.144867,228.174301 202.095917,228.101990 
	C198.115692,227.827637 194.103210,228.071854 190.108322,227.946518 
	C184.861023,227.781891 183.094009,225.682709 183.040787,219.870209 
	C182.983459,213.610565 184.693130,211.275955 189.981216,211.141037 
	C196.767700,210.967896 203.561951,211.098953 210.637253,211.098953 
	C210.637253,213.231949 210.637253,214.780350 210.637253,216.919357 
	C204.542358,216.919357 198.750580,216.901749 192.959000,216.929169 
	C190.998489,216.938446 188.364670,216.619904 189.104141,219.719818 
	C189.356689,220.778549 191.545807,221.934036 192.936386,222.055206 
	C196.740509,222.386719 200.600708,222.020294 204.419891,222.247070 
	C209.484909,222.547821 211.112762,224.954666 210.984451,231.343857 
	C210.874390,236.824463 209.108963,238.907806 204.055847,238.998154 
	C197.264404,239.119598 190.469162,239.028290 183.778870,239.028290 
	C182.754715,233.294769 182.754715,233.294769 191.111237,233.281982 
z"/>
<path fill="#4E5B5C" opacity="1.000000" stroke="none" 
	d="
M307.347107,238.983002 
	C306.269409,237.790192 305.159943,236.639816 305.130524,235.462448 
	C304.960632,228.660172 305.160828,221.848663 304.992279,215.046326 
	C304.916412,211.985275 306.045044,210.955292 309.043457,211.044861 
	C314.682892,211.213333 320.331146,211.061508 325.975128,211.111969 
	C330.642395,211.153702 332.995056,213.551010 332.980560,218.248047 
	C332.966705,222.730316 333.052765,227.214218 332.960022,231.694595 
	C332.850464,236.987442 330.956329,238.927216 325.743042,239.005905 
	C319.768066,239.096085 313.790588,239.017960 307.347107,238.983002 
M327.201263,226.455109 
	C327.201263,223.390045 327.201263,220.324982 327.201263,217.257446 
	C321.292267,217.257446 316.379944,217.257446 311.138184,217.257446 
	C311.027618,219.198730 310.869263,220.817764 310.853821,222.438156 
	C310.749512,233.376923 310.765137,233.135864 321.510742,233.395004 
	C326.238129,233.509003 327.861420,231.849823 327.201263,226.455109 
z"/>
<path fill="#4E5C5C" opacity="1.000000" stroke="none" 
	d="
M205.405823,286.974487 
	C200.143814,287.016632 195.324509,287.085358 190.507263,287.014221 
	C185.179810,286.935577 183.202850,285.071289 183.072220,279.897064 
	C182.954834,275.247803 183.012054,270.592743 183.062073,265.940979 
	C183.109970,261.484070 185.474228,259.188934 189.883240,259.120758 
	C194.700394,259.046234 199.521271,259.031525 204.337509,259.133545 
	C208.484726,259.221436 210.867889,261.380280 210.943573,265.621490 
	C211.032486,270.604431 211.004272,275.590485 210.953339,280.574463 
	C210.918488,283.984283 209.325607,286.241211 205.405823,286.974487 
M205.196732,269.638214 
	C204.441849,268.086945 203.813751,265.286713 202.910675,265.195068 
	C198.382401,264.735321 193.782150,264.984436 188.845505,264.984436 
	C188.845505,269.131592 189.114777,272.469025 188.779526,275.744629 
	C188.327988,280.156403 189.952911,281.464233 194.352783,281.383087 
	C205.195648,281.183197 205.199509,281.392487 205.196732,269.638214 
z"/>
<path fill="#4F5B5C" opacity="1.000000" stroke="none" 
	d="
M417.839722,275.371033 
	C417.839478,279.284027 417.839478,282.751129 417.839478,286.666107 
	C415.850922,286.788818 414.301208,286.884430 412.082642,287.021332 
	C412.082642,278.660400 411.913574,270.717224 412.158173,262.786774 
	C412.270508,259.144073 414.804962,258.216003 417.527008,260.726501 
	C421.560303,264.446381 425.334991,268.445923 429.240295,272.305603 
	C430.476410,273.527252 431.778076,274.682556 434.205963,276.946259 
	C434.205963,271.552795 434.352844,267.637848 434.165466,263.738922 
	C433.970367,259.679321 435.405640,258.156189 439.939117,259.834259 
	C439.939117,267.657715 440.013977,275.603882 439.850281,283.545105 
	C439.828278,284.613525 438.700897,286.434662 437.914368,286.532440 
	C436.694580,286.684174 435.005280,285.981506 434.077057,285.069214 
	C429.104523,280.182068 424.306152,275.117676 418.296661,268.929382 
	C418.064575,271.976013 417.952271,273.450592 417.839722,275.371033 
z"/>
<path fill="#525656" opacity="1.000000" stroke="none" 
	d="
M213.626404,273.033997 
	C213.644135,269.386353 213.518967,266.216064 213.752670,263.072479 
	C213.839249,261.907898 214.580399,260.047699 215.358170,259.854553 
	C216.502213,259.570465 218.332520,260.108490 219.199890,260.970795 
	C224.372040,266.112854 229.351425,271.448761 234.395508,276.719604 
	C234.856857,276.518524 235.318222,276.317413 235.779572,276.116333 
	C235.779572,270.634308 235.779572,265.152283 235.779572,259.427734 
	C237.943222,259.427734 239.356689,259.427734 241.312729,259.427734 
	C241.312729,267.737701 241.587769,275.856506 241.188568,283.942047 
	C241.007874,287.601807 238.381516,287.744385 235.962402,285.437622 
	C231.991455,281.651154 228.178146,277.699738 224.280548,273.835846 
	C223.000977,272.567322 221.666168,271.354553 219.416473,269.227325 
	C219.416473,275.630188 219.416473,280.948822 219.416473,286.615082 
	C217.170639,286.615082 215.640518,286.615082 213.625916,286.615082 
	C213.625916,282.129456 213.625916,277.825684 213.626404,273.033997 
z"/>
<path fill="#515859" opacity="1.000000" stroke="none" 
	d="
M215.602966,211.179810 
	C222.021347,211.127335 228.000687,211.024536 233.975937,211.137772 
	C239.776581,211.247665 241.508652,213.360031 241.448227,219.793732 
	C241.391113,225.876068 239.668045,227.824905 233.993759,227.938507 
	C229.357513,228.031342 224.717911,227.957413 219.454300,227.957413 
	C219.261368,231.619934 219.083649,234.993896 218.888748,238.694077 
	C217.253845,238.788879 215.848602,238.870361 214.610382,238.942154 
	C214.230072,238.400284 213.896454,238.146301 213.892990,237.887878 
	C213.786606,229.926407 213.661652,221.964249 213.702026,214.003021 
	C213.706757,213.074234 214.652618,212.150223 215.602966,211.179810 
M225.608307,216.883911 
	C224.776047,216.885635 223.826431,216.629395 223.136200,216.943359 
	C221.745636,217.575928 220.496277,218.518875 219.188644,219.333755 
	C220.533127,220.289490 221.782425,221.839157 223.242584,222.073212 
	C226.001434,222.515442 228.885132,222.110825 231.710373,222.223236 
	C235.660461,222.380386 236.765091,220.805206 235.072754,216.883774 
	C232.182098,216.883774 229.369263,216.883774 225.608307,216.883911 
z"/>
<path fill="#4F5B5B" opacity="1.000000" stroke="none" 
	d="
M309.897583,287.029968 
	C305.088562,287.025513 300.761200,287.056946 296.434845,287.006439 
	C292.201843,286.957001 289.953125,284.811615 289.931671,280.523834 
	C289.906677,275.531433 289.915039,270.538788 289.935913,265.546356 
	C289.952881,261.484741 292.170227,259.290741 296.075256,259.173462 
	C302.227325,258.988770 308.394073,258.979156 314.541107,259.228302 
	C315.645294,259.273041 316.684479,260.923004 317.753662,261.831818 
	C316.630188,262.853790 315.561310,264.677216 314.373688,264.758148 
	C309.403656,265.096649 304.395660,265.007507 299.406403,264.882355 
	C296.658447,264.813446 295.678131,265.848053 295.497009,268.624451 
	C294.670380,281.294952 294.594086,281.289795 307.018433,281.290192 
	C309.181915,281.290253 311.351990,281.401489 313.507416,281.270508 
	C317.536011,281.025726 318.555481,282.817871 317.065674,287.029968 
	C314.936432,287.029968 312.658081,287.029968 309.897583,287.029968 
z"/>
<path fill="#515758" opacity="1.000000" stroke="none" 
	d="
M119.243546,242.095337 
	C123.980507,239.467178 128.266708,239.697861 132.068405,243.003372 
	C135.316879,245.827881 136.636444,249.490997 135.381058,253.797592 
	C134.085831,258.240936 131.071060,260.801453 126.548630,261.567810 
	C122.159683,262.311584 117.401558,259.729340 115.447289,255.625351 
	C113.243050,250.996445 114.384071,246.620224 119.243546,242.095337 
z"/>
<path fill="#02C0C9" opacity="1.000000" stroke="none" 
	d="
M326.341003,266.201111 
	C331.309875,265.507080 336.165283,265.152924 341.024780,265.082825 
	C341.622559,265.074188 342.689636,266.562561 342.727600,267.394196 
	C342.766663,268.250610 341.850983,269.888092 341.286926,269.917542 
	C336.857758,270.148865 332.403961,270.217560 327.982300,269.942078 
	C327.331512,269.901550 326.810120,267.784058 326.341003,266.201111 
z"/>
<path fill="#00C2CB" opacity="1.000000" stroke="none" 
	d="
M327.201172,226.935623 
	C327.861420,231.849823 326.238129,233.509003 321.510742,233.395004 
	C310.765137,233.135864 310.749512,233.376923 310.853821,222.438156 
	C310.869263,220.817764 311.027618,219.198730 311.138184,217.257446 
	C316.379944,217.257446 321.292267,217.257446 327.201263,217.257446 
	C327.201263,220.324982 327.201263,223.390045 327.201172,226.935623 
z"/>
<path fill="#00C2CB" opacity="1.000000" stroke="none" 
	d="
M205.197769,270.120697 
	C205.199509,281.392487 205.195648,281.183197 194.352783,281.383087 
	C189.952911,281.464233 188.327988,280.156403 188.779526,275.744629 
	C189.114777,272.469025 188.845505,269.131592 188.845505,264.984436 
	C193.782150,264.984436 198.382401,264.735321 202.910675,265.195068 
	C203.813751,265.286713 204.441849,268.086945 205.197769,270.120697 
z"/>
<path fill="#02C0C9" opacity="1.000000" stroke="none" 
	d="
M226.082367,216.883850 
	C229.369263,216.883774 232.182098,216.883774 235.072754,216.883774 
	C236.765091,220.805206 235.660461,222.380386 231.710373,222.223236 
	C228.885132,222.110825 226.001434,222.515442 223.242584,222.073212 
	C221.782425,221.839157 220.533127,220.289490 219.188644,219.333771 
	C220.496277,218.518875 221.745636,217.575928 223.136200,216.943359 
	C223.826431,216.629395 224.776047,216.885635 226.082367,216.883850 
z"/>
</svg>